<svg width="800" height="800" viewBox="0 0 800 800" fill="none" xmlns="http://www.w3.org/2000/svg">
<path d="M371.708 714.375C385.51 729.875 414.49 729.875 428.292 714.375L718.092 388.069C722.344 383.266 725.005 377.48 725.771 371.375C726.536 365.271 725.376 359.096 722.421 353.559C719.467 348.022 714.839 343.348 709.069 340.073C703.299 336.798 696.62 335.055 689.8 335.045L544.9 335.045L544.9 106.631C544.9 97.9764 541.084 89.6767 534.29 83.5573C527.497 77.4378 518.283 74 508.675 74L291.325 74C281.717 74 272.503 77.4378 265.71 83.5572C258.916 89.6767 255.1 97.9764 255.1 106.631L255.1 335.045L110.2 335.045C103.38 335.055 96.7012 336.798 90.9311 340.073C85.161 343.348 80.5331 348.022 77.5788 353.559C74.6245 359.096 73.4636 365.271 74.2293 371.375C74.9951 377.48 77.6565 383.266 81.9079 388.069L371.708 714.375ZM291.325 400.306L327.55 400.306L327.55 139.261L472.45 139.261L472.45 400.306L614.416 400.306L400 641.74L185.584 400.306L291.325 400.306Z" fill="black"/>
</svg>
