<svg width="576" height="48" viewBox="0 0 576 48" fill="none" xmlns="http://www.w3.org/2000/svg">
<path d="M3.5 14.144C5.433 14.144 7 12.5447 7 10.572C7 8.59924 5.433 7 3.5 7C1.567 7 0 8.59924 0 10.572C0 12.5447 1.567 14.144 3.5 14.144Z" fill="#8C8C8C"/>
<path d="M3.5 27.6381C5.433 27.6381 7 26.0389 7 24.0662C7 22.0934 5.433 20.4942 3.5 20.4942C1.567 20.4942 0 22.0934 0 24.0662C0 26.0389 1.567 27.6381 3.5 27.6381Z" fill="#8C8C8C"/>
<path d="M3.5 41C5.433 41 7 39.4008 7 37.428C7 35.4553 5.433 33.856 3.5 33.856C1.567 33.856 0 35.4553 0 37.428C0 39.4008 1.567 41 3.5 41Z" fill="#8C8C8C"/>
<path d="M154.62 40C153.516 40 152.964 39.3097 152.964 38.2052C152.964 37.653 152.964 36.8246 152.964 35.9963C152.964 34.0634 152.964 31.8545 152.826 30.4739C152.273 24.3993 147.58 19.9813 141.506 19.9813C138.469 19.9813 135.57 19.9813 132.533 19.9813C130.324 19.9813 121.627 19.9813 119.418 19.9813L123.146 23.847C123.422 24.1231 124.664 25.3657 125.906 26.6082C127.701 28.403 129.634 30.4739 130.048 30.8881C130.738 31.7164 130.876 32.6828 130.186 33.3731C129.91 33.6493 129.496 33.9254 129.082 33.9254C128.667 33.9254 128.115 33.6493 127.701 33.2351C126.735 32.2687 125.078 30.6119 123.146 28.6791C119.971 25.5037 116.381 21.9142 114.725 20.1194C113.758 19.153 113.758 17.7724 114.725 16.806C116.795 14.7351 121.351 10.0411 124.802 6.58956L127.839 3.55226C128.115 3.27614 128.667 3 129.082 3C129.496 3 129.91 3.13808 130.186 3.55226C130.876 4.24255 130.876 5.20897 130.048 5.89927C128.944 7.00374 126.321 9.62688 123.836 12.112C121.903 14.0448 120.247 15.8396 119.418 16.6679C119.418 16.6679 119.418 16.6679 119.28 16.806H132.533C135.294 16.806 138.193 16.806 140.954 16.806C147.856 16.806 153.654 21.2239 155.448 27.9888C155.724 29.2314 155.862 30.6119 155.862 31.9925C155.862 33.2351 155.862 35.7202 155.862 37.3769V38.4814C156.277 39.4478 155.724 40 154.62 40Z" fill="#8C8C8C"/>
<path d="M386.453 0.802342C385.5 -0.267443 383.5 -0.267443 382.547 0.802343L362.546 23.3235C362.252 23.655 362.069 24.0543 362.016 24.4757C361.963 24.8969 362.043 25.3231 362.247 25.7053C362.451 26.0874 362.77 26.41 363.169 26.6361C363.567 26.8621 364.028 26.9824 364.498 26.9831L374.499 26.9831L374.499 42.7479C374.499 43.3452 374.763 43.918 375.232 44.3404C375.7 44.7627 376.336 45 376.999 45L392.001 45C392.664 45 393.3 44.7627 393.768 44.3404C394.237 43.918 394.501 43.3452 394.501 42.7479L394.501 26.9831L404.502 26.9831C404.972 26.9824 405.433 26.8621 405.831 26.6361C406.23 26.41 406.549 26.0874 406.753 25.7053C406.957 25.3231 407.037 24.8969 406.984 24.4757C406.931 24.0543 406.748 23.655 406.454 23.3235L386.453 0.802342ZM392.001 22.4789L389.5 22.4789L389.5 40.4958L379.5 40.4958L379.5 22.4789L369.701 22.4789L384.5 5.8155L399.299 22.4789L392.001 22.4789Z" fill="#8C8C8C"/>
<path d="M551.547 47.1977C552.5 48.2674 554.5 48.2674 555.453 47.1977L575.454 24.6765C575.748 24.345 575.931 23.9457 575.984 23.5244C576.037 23.1031 575.957 22.6769 575.753 22.2947C575.549 21.9126 575.23 21.59 574.831 21.3639C574.433 21.1379 573.972 21.0176 573.502 21.0169H563.501V5.25214C563.501 4.65482 563.237 4.08198 562.768 3.65963C562.3 3.23728 561.664 3 561.001 3H545.999C545.336 3 544.7 3.23728 544.232 3.65963C543.763 4.08198 543.499 4.65482 543.499 5.25214V21.0169H533.498C533.028 21.0176 532.567 21.1379 532.169 21.3639C531.77 21.59 531.451 21.9126 531.247 22.2947C531.043 22.6769 530.963 23.1031 531.016 23.5244C531.069 23.9457 531.252 24.345 531.546 24.6765L551.547 47.1977ZM545.999 25.5211H548.5V7.50421H558.5V25.5211H568.299L553.5 42.1845L538.701 25.5211H545.999Z" fill="#8C8C8C"/>
</svg>
