<svg width="800" height="800" viewBox="0 0 800 800" fill="none" xmlns="http://www.w3.org/2000/svg">
<path d="M428.292 85.6246C414.49 70.1251 385.51 70.1251 371.708 85.6246L81.9079 411.93C77.6565 416.734 74.9951 422.52 74.2293 428.625C73.4636 434.729 74.6245 440.904 77.5788 446.441C80.5331 451.978 85.161 456.652 90.9311 459.927C96.7012 463.202 103.38 464.945 110.2 464.955H255.1V693.369C255.1 702.024 258.916 710.323 265.71 716.443C272.503 722.562 281.717 726 291.325 726H508.675C518.283 726 527.497 722.562 534.29 716.443C541.084 710.323 544.9 702.024 544.9 693.369V464.955H689.8C696.62 464.945 703.299 463.202 709.069 459.927C714.839 456.652 719.467 451.978 722.421 446.441C725.376 440.904 726.536 434.729 725.771 428.625C725.005 422.52 722.344 416.734 718.092 411.93L428.292 85.6246Z" fill="black"/>
</svg>
