<svg width="78" height="78" viewBox="0 0 78 78" fill="none" xmlns="http://www.w3.org/2000/svg">
<rect width="78" height="78" fill="#142B67"/>
<rect y="54" width="24" height="24" fill="#B7DEF4"/>
<rect width="24" height="24" fill="#B7DEF4"/>
<rect y="27" width="24" height="24" fill="#B7DEF4"/>
<rect x="27" y="54" width="24" height="24" fill="#B7DEF4"/>
<rect x="27" width="24" height="24" fill="#B7DEF4"/>
<rect x="27" y="27" width="24" height="24" fill="#B7DEF4"/>
<rect x="54" y="54" width="24" height="24" fill="#B7DEF4"/>
<rect x="54" y="27" width="24" height="24" fill="#B7DEF4"/>
<rect x="54" width="24" height="24" fill="#B7DEF4"/>
<path d="M19.3523 4.38006H13.3722V21.7358H10.9801V4.38006H5V2.26742H19.3523V4.38006Z" fill="#142B67"/>
<path d="M19.3523 31.3785H13.3722V48.7342H10.9801V31.3785H5V29.2658H19.3523V31.3785Z" fill="#142B67"/>
<path d="M19.3523 58.3768H13.3722V75.7326H10.9801V58.3768H5V56.2642H19.3523V58.3768Z" fill="#142B67"/>
<path d="M33.1353 2.26742H44.8298V4.42018H40.1919V19.5964H44.8298V21.7358H33.1353V19.5964H37.6669V4.42018H33.1353V2.26742Z" fill="#142B67"/>
<path d="M42.3713 43.6933H35.9128L34.3579 48.7342H31.8994L38.1453 29.2658H40.2052L46.3448 48.7342H43.8996L42.3713 43.6933ZM36.5772 41.5405H41.7201L39.1686 33.09L36.5772 41.5405Z" fill="#142B67"/>
<path d="M45.7202 67.1216C45.7113 67.8169 45.6493 68.5211 45.5341 69.2342C45.4278 69.9384 45.2595 70.6203 45.0291 71.28C44.7988 71.9396 44.502 72.5547 44.1388 73.1252C43.7844 73.6957 43.3591 74.1949 42.863 74.6228C42.3669 75.0507 41.7954 75.3894 41.1487 75.639C40.5108 75.8797 39.7932 76 38.9958 76C38.1985 76 37.4764 75.8797 36.8297 75.639C36.1918 75.3894 35.6248 75.0507 35.1287 74.6228C34.6326 74.1949 34.2029 73.6957 33.8396 73.1252C33.4764 72.5458 33.1796 71.9263 32.9493 71.2666C32.7101 70.607 32.5329 69.925 32.4177 69.2208C32.3025 68.5166 32.2405 67.8169 32.2316 67.1216V64.902C32.2405 64.2067 32.2981 63.5069 32.4044 62.8027C32.5196 62.0896 32.6968 61.4032 32.936 60.7435C33.1663 60.0839 33.4587 59.4688 33.8131 58.8983C34.1763 58.3189 34.606 57.8108 35.1021 57.374C35.5982 56.9461 36.1652 56.6119 36.8031 56.3712C37.4499 56.1216 38.1719 55.9968 38.9693 55.9968C39.7666 55.9968 40.4887 56.1216 41.1354 56.3712C41.7822 56.6119 42.3536 56.9461 42.8497 57.374C43.3458 57.8019 43.7711 58.3055 44.1255 58.8849C44.4887 59.4554 44.7899 60.0705 45.0291 60.7302C45.2595 61.3898 45.4278 62.0762 45.5341 62.7893C45.6493 63.5024 45.7113 64.2067 45.7202 64.902V67.1216ZM43.2883 64.8752C43.2794 64.4117 43.2484 63.9303 43.1952 63.4311C43.1421 62.923 43.0535 62.4194 42.9295 61.9202C42.7966 61.4299 42.6238 60.9619 42.4112 60.5162C42.1985 60.0616 41.9328 59.6605 41.6138 59.3128C41.2949 58.9741 40.9184 58.7067 40.4842 58.5106C40.0501 58.3055 39.5451 58.203 38.9693 58.203C38.4023 58.203 37.9017 58.3055 37.4676 58.5106C37.0335 58.7156 36.6569 58.9875 36.338 59.3262C36.0191 59.6738 35.7533 60.075 35.5407 60.5296C35.328 60.9753 35.1597 61.4433 35.0357 61.9336C34.9028 62.4328 34.8053 62.9364 34.7433 63.4445C34.6901 63.9437 34.6591 64.4206 34.6503 64.8752V67.1216C34.6591 67.5762 34.6901 68.0575 34.7433 68.5657C34.8053 69.0738 34.9028 69.5729 35.0357 70.0632C35.1686 70.5624 35.3413 71.0393 35.5539 71.4939C35.7666 71.9485 36.0324 72.3452 36.3513 72.684C36.6702 73.0316 37.0468 73.3079 37.4809 73.513C37.915 73.718 38.42 73.8205 38.9958 73.8205C39.5717 73.8205 40.0767 73.718 40.5108 73.513C40.9538 73.3079 41.3347 73.0316 41.6537 72.684C41.9638 72.3452 42.2207 71.953 42.4245 71.5073C42.6371 71.0527 42.8099 70.5758 42.9427 70.0766C43.0668 69.5863 43.1509 69.0871 43.1952 68.579C43.2484 68.0709 43.2794 67.5851 43.2883 67.1216V64.8752Z" fill="#142B67"/>
<path d="M72.5 15.8792C72.3848 16.7796 72.1545 17.6086 71.809 18.3663C71.4634 19.1151 71.016 19.7569 70.4667 20.2917C69.9086 20.8355 69.2486 21.2589 68.4867 21.562C67.7336 21.8561 66.8919 22.0032 65.9617 22.0032C65.1644 22.0032 64.4379 21.8918 63.7823 21.6689C63.1355 21.4372 62.5597 21.1207 62.0547 20.7196C61.5408 20.3185 61.0979 19.846 60.7258 19.3022C60.3625 18.7585 60.0613 18.1657 59.8221 17.5239C59.574 16.8821 59.388 16.2091 59.2639 15.5048C59.1488 14.8006 59.0868 14.0875 59.0779 13.3655V10.6511C59.0868 9.92908 59.1488 9.21596 59.2639 8.51174C59.388 7.80753 59.574 7.13452 59.8221 6.4927C60.0613 5.85089 60.3625 5.2581 60.7258 4.71434C61.0979 4.16167 61.5408 3.68476 62.0547 3.28363C62.5597 2.88249 63.1355 2.5705 63.7823 2.34765C64.429 2.11588 65.1555 2 65.9617 2C66.9274 2 67.7912 2.15154 68.5531 2.45462C69.315 2.74878 69.9706 3.16775 70.5199 3.71151C71.0692 4.26418 71.5077 4.92382 71.8355 5.69043C72.1722 6.45704 72.3937 7.30388 72.5 8.23095H70.0415C69.9618 7.64262 69.8244 7.0944 69.6295 6.5863C69.4346 6.0782 69.1733 5.63249 68.8455 5.24919C68.5177 4.86588 68.1146 4.56726 67.6361 4.35332C67.1666 4.13047 66.6084 4.01904 65.9617 4.01904C65.377 4.01904 64.8587 4.1171 64.4069 4.31321C63.9639 4.5004 63.5829 4.75891 63.264 5.08873C62.9362 5.41855 62.6616 5.80186 62.4401 6.23865C62.2274 6.67544 62.0547 7.13897 61.9218 7.62925C61.7889 8.11952 61.6914 8.62317 61.6294 9.14019C61.5763 9.64829 61.5497 10.143 61.5497 10.6244V13.3655C61.5497 13.8468 61.5763 14.346 61.6294 14.863C61.6914 15.3711 61.7889 15.8703 61.9218 16.3606C62.0547 16.8598 62.2274 17.3278 62.4401 17.7646C62.6527 18.2014 62.9229 18.5847 63.2507 18.9145C63.5785 19.2532 63.9639 19.5206 64.4069 19.7168C64.8498 19.9039 65.3681 19.9975 65.9617 19.9975C66.6084 19.9975 67.1666 19.895 67.6361 19.69C68.1146 19.485 68.5177 19.1953 68.8455 18.8209C69.1733 18.4554 69.4346 18.0231 69.6295 17.5239C69.8244 17.0158 69.9618 16.4676 70.0415 15.8792H72.5Z" fill="#142B67"/>
<path d="M72.5 42.8776C72.3848 43.778 72.1545 44.607 71.809 45.3647C71.4634 46.1134 71.016 46.7553 70.4667 47.2901C69.9086 47.8339 69.2486 48.2573 68.4867 48.5604C67.7336 48.8545 66.8919 49.0016 65.9617 49.0016C65.1644 49.0016 64.4379 48.8902 63.7823 48.6673C63.1355 48.4356 62.5597 48.1191 62.0547 47.718C61.5408 47.3168 61.0979 46.8444 60.7258 46.3006C60.3625 45.7569 60.0613 45.1641 59.8221 44.5223C59.574 43.8805 59.388 43.2075 59.2639 42.5032C59.1488 41.799 59.0868 41.0859 59.0779 40.3639V37.6495C59.0868 36.9275 59.1488 36.2143 59.2639 35.5101C59.388 34.8059 59.574 34.1329 59.8221 33.4911C60.0613 32.8493 60.3625 32.2565 60.7258 31.7127C61.0979 31.1601 61.5408 30.6832 62.0547 30.282C62.5597 29.8809 63.1355 29.5689 63.7823 29.346C64.429 29.1143 65.1555 28.9984 65.9617 28.9984C66.9274 28.9984 67.7912 29.1499 68.5531 29.453C69.315 29.7472 69.9706 30.1661 70.5199 30.7099C71.0692 31.2626 71.5077 31.9222 71.8355 32.6888C72.1722 33.4554 72.3937 34.3023 72.5 35.2293H70.0415C69.9618 34.641 69.8244 34.0928 69.6295 33.5847C69.4346 33.0766 69.1733 32.6309 68.8455 32.2476C68.5177 31.8643 68.1146 31.5656 67.6361 31.3517C67.1666 31.1289 66.6084 31.0174 65.9617 31.0174C65.377 31.0174 64.8587 31.1155 64.4069 31.3116C63.9639 31.4988 63.5829 31.7573 63.264 32.0871C62.9362 32.4169 62.6616 32.8002 62.4401 33.237C62.2274 33.6738 62.0547 34.1374 61.9218 34.6276C61.7889 35.1179 61.6914 35.6216 61.6294 36.1386C61.5763 36.6467 61.5497 37.1414 61.5497 37.6228V40.3639C61.5497 40.8452 61.5763 41.3444 61.6294 41.8614C61.6914 42.3695 61.7889 42.8687 61.9218 43.359C62.0547 43.8582 62.2274 44.3262 62.4401 44.763C62.6527 45.1997 62.9229 45.5831 63.2507 45.9129C63.5785 46.2516 63.9639 46.519 64.4069 46.7151C64.8498 46.9023 65.3681 46.9959 65.9617 46.9959C66.6084 46.9959 67.1666 46.8934 67.6361 46.6884C68.1146 46.4834 68.5177 46.1937 68.8455 45.8193C69.1733 45.4538 69.4346 45.0215 69.6295 44.5223C69.8244 44.0142 69.9618 43.466 70.0415 42.8776H72.5Z" fill="#142B67"/>
<path d="M70.6129 66.7338H62.5331V73.6333H71.9551V75.7326H60.0746V56.2642H71.8355V58.3768H62.5331V64.6345H70.6129V66.7338Z" fill="#142B67"/>
</svg>
