<svg width="194" height="194" viewBox="0 0 194 194" fill="none" xmlns="http://www.w3.org/2000/svg">
<rect x="2" y="2" width="190" height="190" rx="3" fill="#131780" stroke="#131780" stroke-width="4"/>
<rect x="4" y="130" width="60" height="60" fill="white"/>
<rect x="4" y="4" width="60" height="59" fill="white"/>
<rect x="4" y="67" width="60" height="59" fill="white"/>
<rect x="68" y="130" width="59" height="60" fill="white"/>
<rect x="68" y="4" width="59" height="59" fill="white"/>
<rect x="68" y="67" width="59" height="59" fill="white"/>
<rect x="131" y="130" width="59" height="60" fill="white"/>
<rect x="131" y="67" width="59" height="59" fill="white"/>
<rect x="131" y="4" width="59" height="59" fill="white"/>
<path d="M50.1479 14.4448H35.8875V55.8315H30.1834V14.4448H15.9231V9.40693H50.1479V14.4448Z" fill="#131780"/>
<path d="M50.1479 78.8255H35.8875V120.212H30.1834V78.8255H15.9231V73.7877H50.1479V78.8255Z" fill="#131780"/>
<path d="M50.1479 143.206H35.8875V184.593H30.1834V143.206H15.9231V138.168H50.1479V143.206Z" fill="#131780"/>
<path d="M83.015 9.40693H110.902V14.5404H99.8422V50.7299H110.902V55.8315H83.015V50.7299H93.8211V14.5404H83.015V9.40693Z" fill="#131780"/>
<path d="M105.039 108.192H89.6381L85.9304 120.212H80.0678L94.962 73.7877H99.8738L114.514 120.212H108.684L105.039 108.192ZM91.2226 103.058H103.486L97.4021 82.9068L91.2226 103.058Z" fill="#131780"/>
<path d="M113.025 164.059C113.004 165.717 112.856 167.396 112.581 169.097C112.328 170.776 111.926 172.402 111.377 173.975C110.828 175.548 110.12 177.015 109.254 178.375C108.409 179.736 107.395 180.926 106.212 181.947C105.029 182.967 103.666 183.775 102.124 184.37C100.603 184.944 98.8915 185.231 96.9901 185.231C95.0887 185.231 93.3669 184.944 91.8247 184.37C90.3036 183.775 88.9515 182.967 87.7684 181.947C86.5853 180.926 85.5607 179.736 84.6945 178.375C83.8283 176.994 83.1206 175.516 82.5713 173.943C82.0009 172.37 81.5784 170.744 81.3037 169.065C81.0291 167.386 80.8812 165.717 80.8601 164.059V158.766C80.8812 157.108 81.0185 155.44 81.272 153.76C81.5467 152.06 81.9692 150.423 82.5396 148.85C83.0889 147.277 83.7861 145.81 84.6311 144.45C85.4973 143.068 86.5219 141.857 87.705 140.815C88.8881 139.795 90.2402 138.997 91.7613 138.424C93.3035 137.828 95.0253 137.531 96.9267 137.531C98.8281 137.531 100.55 137.828 102.092 138.424C103.634 138.997 104.997 139.795 106.18 140.815C107.363 141.835 108.377 143.036 109.222 144.418C110.088 145.778 110.807 147.245 111.377 148.818C111.926 150.391 112.328 152.028 112.581 153.728C112.856 155.429 113.004 157.108 113.025 158.766V164.059ZM107.226 158.702C107.205 157.597 107.131 156.449 107.004 155.259C106.877 154.047 106.666 152.846 106.37 151.656C106.053 150.487 105.641 149.371 105.134 148.308C104.627 147.224 103.994 146.267 103.233 145.438C102.472 144.631 101.575 143.993 100.539 143.525C99.5041 143.036 98.2999 142.792 96.9267 142.792C95.5746 142.792 94.381 143.036 93.3458 143.525C92.3106 144.014 91.4127 144.662 90.6522 145.47C89.8916 146.299 89.2578 147.256 88.7508 148.34C88.2437 149.403 87.8423 150.519 87.5466 151.688C87.2297 152.878 86.9973 154.079 86.8494 155.291C86.7226 156.481 86.6487 157.618 86.6276 158.702V164.059C86.6487 165.143 86.7226 166.291 86.8494 167.503C86.9973 168.714 87.2297 169.905 87.5466 171.074C87.8635 172.264 88.2754 173.401 88.7825 174.486C89.2895 175.57 89.9233 176.516 90.6838 177.323C91.4444 178.152 92.3423 178.811 93.3775 179.3C94.4127 179.789 95.6169 180.034 96.9901 180.034C98.3633 180.034 99.5675 179.789 100.603 179.3C101.659 178.811 102.567 178.152 103.328 177.323C104.067 176.516 104.68 175.58 105.166 174.517C105.673 173.433 106.085 172.296 106.402 171.106C106.698 169.937 106.898 168.746 107.004 167.535C107.131 166.323 107.205 165.164 107.226 164.059V158.702Z" fill="#131780"/>
<path d="M176.885 41.8659C176.61 44.0128 176.061 45.9897 175.237 47.7965C174.413 49.582 173.346 51.1125 172.036 52.3879C170.705 53.6846 169.131 54.6943 167.314 55.417C165.519 56.1185 163.512 56.4692 161.293 56.4692C159.392 56.4692 157.66 56.2035 156.096 55.6721C154.554 55.1194 153.181 54.3648 151.977 53.4082C150.751 52.4517 149.695 51.3251 148.808 50.0284C147.941 48.7318 147.223 47.3182 146.653 45.7877C146.061 44.2572 145.617 42.6524 145.322 40.9731C145.047 39.2938 144.899 37.5933 144.878 35.8715V29.3988C144.899 27.677 145.047 25.9765 145.322 24.2972C145.617 22.618 146.061 21.0131 146.653 19.4826C147.223 17.9521 147.941 16.5385 148.808 15.2419C149.695 13.924 150.751 12.7867 151.977 11.8302C153.181 10.8736 154.554 10.1297 156.096 9.59824C157.638 9.04557 159.371 8.76923 161.293 8.76923C163.596 8.76923 165.656 9.1306 167.473 9.85332C169.29 10.5548 170.853 11.5539 172.163 12.8505C173.473 14.1684 174.518 15.7414 175.3 17.5695C176.103 19.3976 176.631 21.417 176.885 23.6276H171.022C170.832 22.2247 170.504 20.9174 170.04 19.7058C169.575 18.4942 168.952 17.4313 168.17 16.5173C167.388 15.6033 166.427 14.8912 165.286 14.381C164.166 13.8496 162.836 13.5839 161.293 13.5839C159.899 13.5839 158.663 13.8177 157.586 14.2853C156.529 14.7317 155.621 15.3482 154.86 16.1347C154.079 16.9212 153.424 17.8352 152.896 18.8768C152.388 19.9184 151.977 21.0237 151.66 22.1928C151.343 23.3619 151.11 24.5629 150.962 25.7958C150.836 27.0075 150.772 28.1872 150.772 29.3351V35.8715C150.772 37.0194 150.836 38.2097 150.962 39.4426C151.11 40.6542 151.343 41.8446 151.66 43.0137C151.977 44.2041 152.388 45.3201 152.896 46.3617C153.403 47.4032 154.047 48.3173 154.829 49.1038C155.61 49.9115 156.529 50.5492 157.586 51.0169C158.642 51.4633 159.878 51.6865 161.293 51.6865C162.836 51.6865 164.166 51.442 165.286 50.9531C166.427 50.4642 167.388 49.7734 168.17 48.8806C168.952 48.0091 169.575 46.9781 170.04 45.7877C170.504 44.5761 170.832 43.2688 171.022 41.8659H176.885Z" fill="#131780"/>
<path d="M176.885 106.247C176.61 108.394 176.061 110.37 175.237 112.177C174.413 113.963 173.346 115.493 172.036 116.769C170.705 118.065 169.131 119.075 167.314 119.798C165.519 120.499 163.512 120.85 161.293 120.85C159.392 120.85 157.66 120.584 156.096 120.053C154.554 119.5 153.181 118.746 151.977 117.789C150.751 116.832 149.695 115.706 148.808 114.409C147.941 113.113 147.223 111.699 146.653 110.169C146.061 108.638 145.617 107.033 145.322 105.354C145.047 103.675 144.899 101.974 144.878 100.252V93.7796C144.899 92.0578 145.047 90.3573 145.322 88.678C145.617 86.9987 146.061 85.3938 146.653 83.8634C147.223 82.3329 147.941 80.9193 148.808 79.6227C149.695 78.3047 150.751 77.1675 151.977 76.211C153.181 75.2544 154.554 74.5104 156.096 73.979C157.638 73.4263 159.371 73.15 161.293 73.15C163.596 73.15 165.656 73.5114 167.473 74.2341C169.29 74.9356 170.853 75.9346 172.163 77.2313C173.473 78.5492 174.518 80.1222 175.3 81.9503C176.103 83.7783 176.631 85.7977 176.885 88.0084H171.022C170.832 86.6055 170.504 85.2982 170.04 84.0866C169.575 82.8749 168.952 81.8121 168.17 80.8981C167.388 79.984 166.427 79.2719 165.286 78.7618C164.166 78.2303 162.836 77.9646 161.293 77.9646C159.899 77.9646 158.663 78.1985 157.586 78.6661C156.529 79.1125 155.621 79.7289 154.86 80.5154C154.079 81.3019 153.424 82.216 152.896 83.2576C152.388 84.2991 151.977 85.4045 151.66 86.5736C151.343 87.7427 151.11 88.9437 150.962 90.1766C150.836 91.3882 150.772 92.568 150.772 93.7158V100.252C150.772 101.4 150.836 102.591 150.962 103.823C151.11 105.035 151.343 106.225 151.66 107.395C151.977 108.585 152.388 109.701 152.896 110.742C153.403 111.784 154.047 112.698 154.829 113.485C155.61 114.292 156.529 114.93 157.586 115.398C158.642 115.844 159.878 116.067 161.293 116.067C162.836 116.067 164.166 115.823 165.286 115.334C166.427 114.845 167.388 114.154 168.17 113.261C168.952 112.39 169.575 111.359 170.04 110.169C170.504 108.957 170.832 107.65 171.022 106.247H176.885Z" fill="#131780"/>
<path d="M172.385 163.134H153.117V179.587H175.585V184.593H147.255V138.168H175.3V143.206H153.117V158.128H172.385V163.134Z" fill="#131780"/>
</svg>
